HIERARCHY
ROOT pelvis
{
  OFFSET 0 100 0
  CHANNELS 6 Xposition Yposition Zposition Zrotation Xrotation Yrotation
  JOINT pelvis_right_femur
  {
    OFFSET -10.78128 -3.44521 -0.5502486
    CHANNELS 3 Zrotation Xrotation Yrotation
    JOINT right_femur_tibia
    {
      OFFSET -0.8047443 -44.0398 -0.1307829
      CHANNELS 3 Zrotation Xrotation Yrotation
      JOINT right_tibia_foot
      {
        OFFSET 3.006224 -47.83518 -5
        CHANNELS 3 Zrotation Xrotation Yrotation
        End Site
        {
          OFFSET 0 -5 15
        }
      }
    }
  }
  JOINT pelvis_left_femur
  {
    OFFSET 10.78128 -3.44521 -0.5502486
    CHANNELS 3 Zrotation Xrotation Yrotation
    JOINT left_femur_tibia
    {
      OFFSET 0.8047443 -44.0398 -0.1307829
      CHANNELS 3 Zrotation Xrotation Yrotation
      JOINT left_tibia_foot
      {
        OFFSET -4.370144 -48.10324 -4.275266
        CHANNELS 3 Zrotation Xrotation Yrotation
        End Site
        {
          OFFSET 0 -5 15
        }
      }
    }
  }
  JOINT pelvis_spine1
  {
    OFFSET 0 6.468898 -3.129235
    CHANNELS 3 Zrotation Xrotation Yrotation
    JOINT spine1
    {
      OFFSET 0 23.15396 4.99043
      CHANNELS 3 Zrotation Xrotation Yrotation
      JOINT spine2
      {
        OFFSET 0 20.79997 -5.064912
        CHANNELS 3 Zrotation Xrotation Yrotation
        JOINT neck
        {
          OFFSET 0 14.38658 9.616178
          CHANNELS 3 Zrotation Xrotation Yrotation
          End Site
          {
            OFFSET 0 20 0
          }
        }
      }
      JOINT right_manubrium
      {
        OFFSET -5.722621 16.35077 3.967754
        CHANNELS 3 Zrotation Xrotation Yrotation
        JOINT right_clavicle
        {
          OFFSET -13.16364 1.694482 -4.693211
          CHANNELS 3 Zrotation Xrotation Yrotation
          JOINT right_humerus
          {
            OFFSET -28.5034 -0.3100689 -2.792744
            CHANNELS 3 Zrotation Xrotation Yrotation
            JOINT right_radius
            {
              OFFSET -25.15693 0.02248979 -1.271978
              CHANNELS 3 Zrotation Xrotation Yrotation
              End Site
              {
                OFFSET -15 0 0
              }
            }
          }
        }
      }
      JOINT left_manubrium
      {
        OFFSET 5.722621 16.35077 3.967754
        CHANNELS 3 Zrotation Xrotation Yrotation
        JOINT left_clavicle
        {
          OFFSET 13.16364 1.694482 -4.693211
          CHANNELS 3 Zrotation Xrotation Yrotation
          JOINT left_humerus
          {
            OFFSET 29.39168 -1.063119 -2.237045
            CHANNELS 3 Zrotation Xrotation Yrotation
            JOINT left_radius
            {
              OFFSET 24.59957 -0.9528479 0.9047498
              CHANNELS 3 Zrotation Xrotation Yrotation
              End Site
              {
                OFFSET 15 -0 -0
              }
            }
          }
        }
      }
    }
  }
}
MOTION
Frames: 23
Frame Time: 0.0416666666667
0 103.5113 0 1.048675 -0.9494552 -0.2563331 4.126674 -15.60336 10.99694 -0 39.13627 -0 -5.27137 -17.96074 -3.853822 -7.220707 10.24084 -24.53167 -0 7.454305 -0 10.88719 -15.04768 29.17835 -3.854393 -3.971367 4.878223 2.534551 9.662238 -7.509417 1.554827 22.1908 6.611442 3.154276 -24.49169 9.425353 6.88359 -20.10358 11.82694 85.13727 36.58957 -18.66239 -0 0 16.66264 -6.125178 7.843043 3.884631 5.255732 -18.59182 -1.919196 -94.68886 27.29182 23.04493 0 0 -15.18147 7.68024 17.03933 5.345483
0.2461419 103.5475 1.377036 0.9478033 -1.033097 -0.4573418 4.112744 -16.25767 10.57649 -0 39.13662 -0 -5.51855 -16.83857 -3.712983 -7.1385 10.28584 -24.13545 -0 7.531419 -0 10.28507 -15.53911 28.5951 -3.734851 -3.715692 4.781083 2.431981 9.67694 -7.440677 1.578755 22.19136 6.663883 3.20828 -24.48723 9.44262 6.6741 -19.99559 11.7479 85.32327 36.13708 -18.66377 -0 0 16.49484 -6.440891 7.802658 4.015384 5.356753 -18.77745 -1.997777 -94.49782 27.31768 22.78034 0 0 -15.35654 7.669953 16.94112 5.452924
0.5148209 103.4303 3.09199 0.4626772 -0.1959724 -0.4458574 4.811291 -20.37537 9.825747 -0 36.5387 -0 -5.740754 -14.44667 -3.247367 -6.809272 10.62128 -22.9386 -0 6.817387 -0 8.811414 -17.63404 26.72521 -3.36041 -2.967728 4.682794 2.421243 9.540622 -7.500838 1.623806 21.71253 6.877772 3.3697 -24.95216 9.630615 6.393435 -19.71936 11.56482 85.57513 35.64031 -19.00767 -0 0 16.33518 -6.542021 8.019419 4.018501 5.917775 -19.51707 -1.815735 -94.01361 27.28704 22.2398 0 0 -16.77069 8.032286 16.48903 5.454253
0.7988578 103.141 5.087326 0.03389416 0.8979901 -0.2577636 5.631736 -24.21814 9.452007 -0 33.20415 -0 -5.722412 -12.97811 -2.877999 -6.549183 11.06629 -22.02878 -0 6.092436 -0 7.734525 -19.43118 25.22894 -3.083114 -2.465035 4.669942 2.549735 9.341007 -7.667833 1.637016 21.1813 7.06907 3.506021 -25.50538 9.809831 6.288074 -19.49254 11.43594 85.72375 35.62382 -19.51979 -0 0 16.19714 -6.302317 8.280098 3.864055 6.455167 -20.16422 -1.501389 -93.68198 27.29636 21.88153 0 0 -18.30763 8.347169 16.11843 5.420984
1.091371 102.6748 7.409011 -0.3979285 2.071445 0.09443076 6.466306 -27.9565 9.049151 -0 29.34267 -0 -5.732631 -11.44099 -2.489216 -6.310814 11.65296 -21.09338 -0 5.657343 -0 6.524138 -21.16821 23.64336 -2.810856 -2.034495 4.640081 2.708777 9.105734 -7.862822 1.634474 20.65968 7.273163 3.663982 -26.08992 9.968815 6.151023 -19.2096 11.29221 85.97336 35.66122 -20.19239 -0 0 15.85213 -6.079902 8.506266 3.702282 7.013827 -20.84137 -1.162224 -93.33234 27.36994 21.44708 0 0 -20.0117 8.557691 15.77482 5.461255
1.385481 102.0485 10.11667 -0.8351509 3.287826 0.5890778 7.266622 -31.38995 8.578509 -0 25.0849 -0 -5.821937 -9.7945 -2.07147 -6.099756 12.36895 -20.13606 -0 5.717038 -0 5.14206 -22.71831 21.94105 -2.536127 -1.70306 4.581368 2.88629 8.844399 -8.080974 1.608381 20.17051 7.492189 3.851184 -26.68533 10.09085 5.98195 -18.85585 11.13447 86.34845 35.7662 -21.0341 -0 0 15.24962 -5.922128 8.68668 3.555393 7.566139 -21.53393 -0.8188176 -92.96404 27.51526 20.93738 0 0 -21.82917 8.632411 15.4679 5.601917
1.673465 101.2952 13.29312 -1.280166 4.431303 1.19417 7.938651 -34.23363 7.939666 -0 20.69195 -0 -6.08264 -7.988786 -1.62636 -5.904717 13.1962 -19.1261 -0 6.574591 -0 3.510503 -23.89198 20.06689 -2.232166 -1.476761 4.458823 3.052437 8.570456 -8.299953 1.556052 19.76755 7.715353 4.059643 -27.22939 10.15273 5.742135 -18.40207 10.95103 86.89149 35.85619 -22.00991 -0 0 14.316 -5.919403 8.788856 3.466705 8.066915 -22.21223 -0.5192788 -92.53387 27.70906 20.28285 0 0 -23.63042 8.568698 15.196 5.82327
1.948533 100.4754 17.03345 -1.729252 5.374327 1.859841 8.399746 -36.14532 7.076253 -0 16.5281 -0 -6.584804 -6.130144 -1.173548 -5.704963 14.07437 -18.05195 -0 8.58226 -0 1.633199 -24.40515 18.02016 -1.868757 -1.36859 4.245248 3.183753 8.304738 -8.502621 1.470908 19.50213 7.922691 4.266078 -27.64433 10.12793 5.424234 -17.83156 10.74183 87.60534 35.88993 -23.04777 -0 0 13.02398 -6.129294 8.805134 3.470607 8.445699 -22.8201 -0.3126645 -92.00238 27.88336 19.4359 0 0 -25.21982 8.409377 14.94599 6.048022
2.206668 99.68604 21.42752 -2.168078 5.955738 2.513874 8.606348 -36.73985 6.002994 -0 13.1105 -0 -7.364955 -4.458573 -0.7597244 -5.466939 14.87287 -16.90829 -0 12.14489 -0 -0.3967773 -23.9071 15.86991 -1.412786 -1.379211 3.925894 3.258225 8.083021 -8.670296 1.34599 19.42411 8.082514 4.429022 -27.82906 9.988011 5.048863 -17.14741 10.52012 88.44872 35.84168 -24.0209 -0 0 11.41352 -6.583173 8.760153 3.596117 8.605463 -23.27576 -0.2532619 -91.34171 27.92237 18.38436 0 0 -26.32456 8.237548 14.68788 6.1527
2.448518 99.07017 26.52698 -2.566404 6.004657 3.063146 8.604071 -35.66853 4.866504 -0 11.05906 -0 -8.38412 -3.318708 -0.4667752 -5.15127 15.34926 -15.69966 -0 17.65494 -0 -2.374979 -22.06979 13.78197 -0.8443899 -1.483047 3.522746 3.260595 7.963289 -8.783261 1.17779 19.56305 8.154773 4.496174 -27.67832 9.710963 4.681382 -16.3933 10.3218 89.32104 35.72474 -24.75454 -0 0 9.634811 -7.266933 8.732482 3.857787 8.437881 -23.48433 -0.3843096 -90.5757 27.68022 17.21538 0 0 -26.63365 8.153776 14.37427 6.010053
2.679798 98.81509 32.29645 -2.873096 5.390878 3.407387 8.522461 -32.75329 3.938601 -0 10.90622 -0 -9.494315 -3.029562 -0.3981949 -4.731885 15.11449 -14.44021 -0 25.33438 -0 -4.022621 -18.7697 12.00555 -0.1871162 -1.611659 3.123788 3.186641 8.027645 -8.817859 0.9740301 19.9052 8.101817 4.427059 -27.12435 9.294976 4.432926 -15.67423 10.21059 90.06409 35.60676 -25.06029 -0 0 7.970552 -8.118166 8.860314 4.250159 7.867139 -23.3737 -0.711219 -89.82431 27.03716 16.17719 0 0 -25.90071 8.223199 13.95031 5.57197
2.908378 99.11328 38.56472 -3.01545 4.105585 3.471 8.472953 -28.14181 3.478154 -0 12.7155 -0 -10.45645 -3.655616 -0.6095876 -4.222402 13.64836 -13.14561 -0 34.93982 -0 -5.096497 -14.32545 10.80338 0.4570747 -1.647584 2.894723 3.042026 8.364615 -8.740729 0.7609734 20.37899 7.909737 4.230413 -26.19735 8.770949 4.424882 -15.15702 10.26933 90.49078 35.60393 -24.79629 -0 0 6.791971 -9.06364 9.301248 4.755109 6.923326 -22.95688 -1.176205 -89.3052 25.98566 15.6633 0 0 -24.11232 8.414464 13.38303 4.954858
3.137274 100.0669 45.01847 -2.910806 2.326501 3.244792 8.426633 -22.36017 3.518799 -0 15.66485 -0 -11.04349 -4.839114 -1.002388 -3.679586 10.43225 -11.8188 -0 45.39986 -0 -5.509525 -9.615549 10.36554 0.9053365 -1.451318 3.031119 2.829737 9.015284 -8.50381 0.5813654 20.87638 7.609894 3.988688 -25.06011 8.19875 4.699542 -15.02259 10.56384 90.43889 35.82269 -23.90982 -0 0 6.417705 -10.1017 10.11991 5.36975 5.803755 -22.38156 -1.666869 -89.23954 24.68185 16.02796 0 0 -21.62096 8.594445 12.70453 4.425111
3.358454 101.5675 51.28518 -2.505779 0.3978912 2.803952 8.223058 -16.13897 3.772848 -0 18.05509 -0 -11.18376 -5.983284 -1.305003 -3.146316 5.210195 -10.44675 -0 54.68722 -0 -5.356002 -5.821584 10.75411 0.9716859 -0.9369763 3.641831 2.535027 9.897304 -8.054993 0.4748553 21.31256 7.27662 3.826707 -23.95486 7.642343 5.126639 -15.37928 11.08345 89.81754 36.26564 -22.40888 -0 0 6.954201 -11.35427 11.16196 6.13782 4.840176 -21.88463 -2.070683 -89.70212 23.38227 17.30887 0 0 -19.05703 8.624112 12.02675 4.22047
3.559757 103.2566 57.08788 -1.842002 -1.287563 2.266371 7.727453 -10.07374 3.793828 -0 18.12034 -0 -11.01923 -6.801217 -1.233059 -2.564447 -1.768947 -9.016308 -0 60.32862 -0 -4.823022 -3.794595 11.86477 0.6073648 -0.1573806 4.647956 2.134916 10.78051 -7.37675 0.4488392 21.66535 6.989394 3.824502 -23.07109 7.144648 5.428513 -16.21121 11.70486 88.60622 36.79505 -20.28862 -0 0 8.292051 -12.97622 12.07582 7.137095 4.335088 -21.62733 -2.325005 -90.55974 22.30051 19.16034 0 0 -16.9697 8.470119 11.48683 4.358595
3.749749 104.6434 62.36202 -1.087307 -2.42891 1.714219 6.972661 -4.392706 3.306165 -0 15.18744 -0 -10.7726 -7.669332 -0.6917664 -1.771424 -9.74367 -7.530461 -0 60.49282 -0 -4.097525 -3.542214 13.41735 -0.02441029 0.6891247 5.810785 1.637869 11.38058 -6.527557 0.4679523 21.94075 6.788031 3.951064 -22.45018 6.72445 5.361449 -17.41489 12.23686 86.82501 37.20722 -17.52572 -0 0 10.28115 -14.96376 12.54268 8.405447 4.374558 -21.54942 -2.41161 -91.5836 21.5246 21.15491 0 0 -15.48436 8.180634 11.16082 4.686496
3.977667 105.3107 67.24677 -0.4639475 -2.907815 1.157547 6.13931 0.9911525 2.403048 -0 10.14661 -0 -10.51301 -9.285013 0.1814772 -0.6297338 -17.68287 -6.02813 -0 54.89862 -0 -3.361111 -4.337163 15.04643 -0.6417931 1.351859 6.871425 1.106635 11.51128 -5.631805 0.4813109 22.11905 6.660336 4.08771 -22.00936 6.39023 4.882072 -18.86321 12.52223 84.55113 37.31989 -14.17934 -0 0 12.84776 -17.08602 12.50064 9.883077 4.787096 -21.39829 -2.329042 -92.62701 21.04565 23.12621 0 0 -14.30378 7.750452 11.02558 5.122305
4.320632 105.0677 71.98895 -0.1189473 -2.804545 0.5703372 5.40998 6.254879 1.440986 -0 4.916257 -0 -10.08716 -11.93954 1.14611 0.8049342 -24.59372 -4.631659 -0 44.901 -0 -2.800559 -5.276701 16.45586 -1.026293 1.637309 7.672032 0.6273782 11.16909 -4.814943 0.46319 22.15886 6.567562 4.115834 -21.63735 6.152819 4.142519 -20.42046 12.50686 81.98652 37.00663 -10.49481 -0 0 15.90248 -19.03514 12.1417 11.44202 5.272437 -20.90043 -2.09033 -93.68721 20.81024 25.17989 0 0 -12.99211 7.07121 10.98602 5.767833
4.848365 103.9909 76.85253 -0.04796075 -2.335555 -0.05468323 4.838173 11.44899 0.7789123 -0 1.528598 -0 -9.295364 -15.06514 2.033076 2.205618 -29.75502 -3.586907 -0 32.90346 -0 -2.539765 -5.759957 17.51489 -1.13921 1.467281 8.185536 0.2559432 10.51802 -4.1462 0.4271494 22.03777 6.485119 3.998283 -21.27946 6.026684 3.378468 -21.92505 12.24394 79.477 36.25259 -6.899906 -0 0 19.17956 -20.63096 11.74122 12.95485 5.573797 -19.93478 -1.734769 -94.8198 20.72328 27.45203 0 0 -11.25579 6.051495 10.92462 6.7673
5.597989 102.3749 82.07012 -0.1159501 -1.759664 -0.6815347 4.322031 16.37326 0.5896103 -0 1.430511 -0 -8.114761 -17.35254 2.802675 3.074551 -32.82557 -3.200125 -0 21.55844 -0 -2.556897 -5.646769 18.24901 -1.112844 0.8901258 8.47157 -0.01100808 9.818464 -3.630547 0.4099326 21.77812 6.427626 3.804652 -20.96662 6.021124 2.805393 -23.19041 11.85847 77.42001 35.21603 -3.878168 -0 0 22.19864 -21.90295 11.49451 14.32853 5.58262 -18.61094 -1.333686 -96.01083 20.63894 29.89023 0 0 -9.069586 4.774605 10.74781 8.098624
6.570401 100.6345 87.81381 -0.1428982 -1.318202 -1.234571 3.68484 20.58292 0.8235982 -0 5.165242 -0 -6.79265 -17.34962 3.440987 3.005121 -33.79813 -3.655449 -0 13.02808 -0 -2.70225 -5.170628 18.75707 -1.149499 0.0619342 8.600657 -0.2264408 9.330582 -3.236307 0.4483187 21.45226 6.43797 3.666979 -20.7761 6.131147 2.546044 -24.03739 11.48907 76.13818 34.16896 -1.810529 -0 0 24.39213 -23.01535 11.44006 15.49523 5.344403 -17.21939 -0.9893409 -97.11229 20.41969 32.19145 0 0 -6.651096 3.51582 10.43274 9.518425
7.736268 99.19326 94.1607 0.002214215 -1.216443 -1.613301 2.801724 23.52847 1.273409 -0 12.38513 -0 -5.755616 -14.20221 3.874988 1.915978 -32.84957 -4.871141 -0 8.468157 -0 -2.815141 -4.738846 19.12128 -1.399843 -0.7998165 8.592132 -0.4588314 9.218811 -2.927634 0.5635214 21.17592 6.551444 3.697581 -20.7559 6.336914 2.588288 -24.33936 11.22525 75.82555 33.31929 -0.8948068 -0 0 25.31085 -24.11296 11.4692 16.389 4.991573 -16.0912 -0.8215075 -97.89104 20.04886 33.90033 0 0 -4.345929 2.589293 10.05386 10.70132
9.041563 98.38795 101.0574 0.3504827 -1.605077 -1.713347 1.684887 24.75794 1.669847 -0 22.07326 -0 -5.377587 -8.10901 4.051613 0.07048937 -30.21555 -6.544372 -0 7.867858 -0 -2.834994 -4.731118 19.36914 -1.889031 -1.481247 8.40263 -0.7553049 9.498758 -2.684909 0.753846 21.08437 6.766772 3.92624 -20.87509 6.609738 2.796278 -24.05875 11.07616 76.54995 32.67126 -1.14845 -0 0 24.78639 -25.20059 11.39734 16.93307 4.657985 -15.45903 -0.9347499 -98.15452 19.68869 34.5969 0 0 -2.502784 2.15833 9.756565 11.43889
